<?xml version="1.0" encoding="UTF-8" standalone="no"?>
<!DOCTYPE svg PUBLIC "-//W3C//DTD SVG 1.1//EN" "http://www.w3.org/Graphics/SVG/1.1/DTD/svg11.dtd">
<svg width="100%" height="100%" viewBox="0 0 90 120" version="1.1" xmlns="http://www.w3.org/2000/svg" xmlns:xlink="http://www.w3.org/1999/xlink" xml:space="preserve" style="fill-rule:evenodd;clip-rule:evenodd;stroke-linejoin:round;stroke-miterlimit:2;">
    <g transform="matrix(0.6,0,0,0.6,-0.420267,-0.627255)">
        <ellipse cx="78.75" cy="98.25" rx="53.25" ry="67.5" style="fill:rgb(235,235,235);"/>
    </g>
    <g transform="matrix(0.6,0,0,0.6,1.67726,-1.67726)">
        <ellipse cx="54.375" cy="72" rx="6.375" ry="6.625" style="fill:white;"/>
    </g>
    <g transform="matrix(0.6,0,0,0.6,26.1273,-1.67726)">
        <ellipse cx="54.375" cy="72" rx="6.375" ry="6.625" style="fill:white;"/>
    </g>
    <g transform="matrix(0.2,0,0,0.215094,23.4273,26.036)">
        <ellipse cx="54.375" cy="72" rx="6.375" ry="6.625"/>
    </g>
    <g transform="matrix(0.2,0,0,0.215094,47.8939,26.1026)">
        <ellipse cx="54.375" cy="72" rx="6.375" ry="6.625"/>
    </g>
    <g transform="matrix(0.6,0,0,0.6,3.62726,-1.67726)">
        <rect x="60.778" y="135.069" width="24.5" height="0.75"/>
    </g>
</svg>

